<svg width="866" height="1237" viewBox="0 0 866 1237" fill="none" xmlns="http://www.w3.org/2000/svg">
<ellipse cx="470" cy="387" rx="396" ry="387" fill="#78E185"/>
<path fill-rule="evenodd" clip-rule="evenodd" d="M405.834 470.714C427.76 455.422 498.943 466.944 528.288 470.714C543.705 472.695 552.807 492.698 560.905 523.11C603.157 512.752 658.605 502.941 698.436 531.017C710.738 541.728 713.039 559.982 698.848 570.168C694.224 573.285 685.313 575.933 683.903 578.635C678.195 593.159 671.828 612.356 672.841 627.806C690.98 790.006 727.343 952.648 752.92 1113.81L753.598 1119.91C756.596 1147.33 759.023 1179.68 740.394 1201.51C727.87 1212.13 710.055 1210.67 694.749 1213.73C550.462 1233.06 404.772 1214.58 259.899 1220.48C235.212 1221.87 210.394 1223.66 185.648 1223.85L185.637 1223.56C188.305 1223.54 190.973 1223.5 193.644 1223.45C190.908 1142.87 185.263 1062.41 183.441 981.795C182.866 956.387 182.698 930.97 183.2 905.559C183.302 900.41 175.302 900.41 175.2 905.559C175.033 913.991 174.959 922.421 174.924 930.852C168.932 926.153 162.269 922.427 155.875 918.234C151.557 915.402 147.545 922.326 151.837 925.141C159.421 930.115 167.493 934.289 174.068 940.644C174.334 940.902 174.612 941.099 174.895 941.265C175.042 1022.26 180.587 1103.19 184.108 1184.07C184.629 1196.04 185.102 1208.01 185.517 1219.99L185.647 1223.85C158.859 1224.04 132.157 1222.35 105.799 1216.21C101.346 1222.42 90.9744 1223.65 85.7014 1215.64C83.0634 1212.62 82.5324 1207.47 78.4494 1206.32C77.3514 1205.46 79.0464 1204.85 79.8224 1205.26C43.7634 1101.93 76.6694 909.382 105.742 803.527C118.461 748.949 149.033 698.421 152.216 641.922C152.551 615.293 133.455 583.214 157.666 561.82C154.095 542.262 172.585 525.964 191.253 524.675C214.23 441.712 315.933 538.47 371 539.448C378.551 526.891 395.344 478.03 405.834 470.714ZM715.423 1013.85C715.418 1008.7 707.418 1008.69 707.423 1013.85C707.477 1068.59 712.18 1134.14 718.943 1188.43C719.571 1193.47 727.579 1193.54 726.943 1188.43C720.18 1134.14 715.477 1068.59 715.423 1013.85ZM340.194 1084.12C344.735 1081.69 340.699 1074.78 336.157 1077.21C302.816 1095.06 271.659 1116.4 241.693 1139.42C237.666 1142.51 241.646 1149.46 245.731 1146.33C275.697 1123.31 306.853 1101.97 340.194 1084.12ZM629.518 1073.9C626.365 1070.11 619.611 1074.04 622.721 1078.07C629.961 1087.45 638.957 1094.84 649.5 1100.24C654.019 1102.56 658.029 1095.85 653.698 1093.42L653.538 1093.34C644.54 1088.72 636.427 1082.61 630.123 1074.67L629.518 1073.9ZM229.137 839.806C230.254 834.79 222.543 832.649 221.423 837.68C219.068 848.254 220.78 859.502 223.228 869.979L223.393 870.676L223.727 872.063C224.167 873.865 225.851 874.87 227.584 874.999C257.012 877.177 286.117 867.177 314.33 859.8L316.418 859.259L318.503 858.728C323.492 857.472 321.379 849.754 316.376 851.014L314.148 851.582C287.025 858.569 259.091 868.422 230.787 867.183L230.49 865.88C228.634 857.596 227.321 848.733 228.998 840.458L229.137 839.806ZM680.863 820.312C680.901 815.162 672.902 815.158 672.863 820.312L672.853 821.322C672.758 829.438 672.091 840.967 664.136 845.269C657.061 849.095 647.667 846.222 640.173 843.296L638.651 842.692L636.454 841.798C631.693 839.849 629.619 847.585 634.328 849.512L635.505 849.988C645.695 854.061 658.785 857.937 668.843 851.786C678.677 845.77 680.571 833.022 680.832 822.314L680.849 821.495L680.863 820.312Z" fill="#EDB98A"/>
<path fill-rule="evenodd" clip-rule="evenodd" d="M658.647 511.787L659.467 511.937L682.103 516.146L659.144 517.878C658.081 517.958 657.014 518.057 655.942 518.176C653.736 518.417 651.57 518.721 649.444 519.089L648.065 519.336L648.656 519.306C657.042 518.916 665.436 519.6 673.711 521.337C681.872 523.049 689.115 525.379 695.595 528.547L696.369 528.931L697.368 529.444L697.849 529.674L698.231 529.851C700.006 530.67 700.727 531.092 701.478 532.109C702.966 534.126 702.331 536.402 700.414 538.132C698.975 539.429 697.12 540.071 694.685 540.439C694.325 540.493 693.958 540.541 693.559 540.586L691.406 540.797C687.392 541.216 684.744 543.389 684.344 546.759C683.95 550.061 685.886 553.41 688.663 554.232L688.867 554.288L689.126 554.347C689.485 554.428 689.804 554.517 690.112 554.628L690.341 554.717L690.842 554.922L690.865 554.926L690.882 554.938L691.359 555.133L691.485 555.376L691.559 555.434C691.843 555.664 691.961 555.828 692.148 556.181L692.31 556.497L692.442 556.954L692.479 557.102L692.502 557.223L692.506 557.26L692.637 558.095L692.672 558.379L692.684 558.564L692.685 571.392L689.396 564.812L689.283 564.906C687.688 566.188 685.646 567.241 683.046 568.267L682.519 568.472L681.148 568.978L678.441 569.945L677.817 570.177L677.262 570.391C676.824 570.563 676.448 570.723 676.106 570.88C675.588 571.118 675.133 571.386 674.737 571.683L674.507 571.865L673.204 572.942L669.994 571.823C669.618 571.69 669.274 571.567 668.947 571.448L665.833 570.289L663.169 569.308C659.709 568.044 656.599 566.945 653.574 565.924L649.902 564.701L647.224 563.827C646.294 563.527 645.311 563.212 644.229 562.867L629.094 558.085L626.179 557.15C624.544 556.622 623.072 556.139 621.548 555.631L618.721 554.68L615.982 553.739C607.067 550.641 598.541 547.327 583.354 541.193L586.648 543.071L589.095 544.453C592.027 546.104 595.24 547.893 598.833 549.882L615.174 558.91L618.446 560.739L625.766 564.853L629.633 567.011C636.558 570.854 641.474 573.454 646.712 576.008C650.763 577.987 654.926 579.885 659.261 581.734L660.895 582.425L663.4 583.469L665.376 584.327L666.713 584.913L667.595 585.289C672.324 587.268 675.096 587.781 678.177 586.977L678.394 586.915L678.605 586.841L684.605 584.54L682.516 590.617C682.278 591.31 682.042 592.011 681.808 592.718L681.388 594.007L681.045 594.683C679.034 598.678 677.05 602.796 675.052 607.108L673.981 609.435L673.362 609.894C673.136 610.061 672.929 610.307 672.756 610.641C671.961 612.193 671.191 613.74 670.446 615.286L669.664 616.929L668.856 618.668C665.322 626.271 662.116 634.077 657.957 644.966L652.479 659.483L651.66 661.648C644.931 679.398 638.589 697.19 632.64 715.015C620.877 750.187 610.474 785.88 601.456 821.99C583.355 894.527 571.276 968.156 565.356 1042.26C564.238 1056.23 563.432 1070.13 562.94 1083.99L562.819 1087.58L562.436 1090.76C562.138 1093.27 561.858 1095.71 561.594 1098.1L561.438 1099.52C559.513 1117.16 558.588 1131.04 558.685 1144.33C558.734 1150.92 558.934 1157.07 559.309 1162.99L559.398 1164.35L560.886 1186.11L553.579 1165.56C553.062 1164.1 552.561 1162.63 551.998 1160.9L551.287 1158.7L550.944 1157.6C550.637 1156.59 550.342 1155.54 549.975 1154.17L548.683 1149.29L548.362 1148.11C548.026 1146.9 547.748 1145.97 547.425 1144.97L547.038 1143.81L546.754 1143C546.235 1141.55 545.623 1140 544.659 1137.66L543.173 1134.05L542.875 1133.32V1132.73L542.924 1130.79C543.027 1126.17 543.002 1121.29 542.866 1115.83L542.742 1111.54L542.611 1107.87C542.596 1107.49 542.581 1107.1 542.565 1106.7L541.878 1090.18L540.554 1053.51L540.347 1047.32C540.199 1042.71 540.077 1038.54 539.974 1034.48L539.885 1030.76L539.856 1029.5C539.049 993.113 539.351 955.68 540.694 916.749L540.827 912.977L540.963 909.262C543.219 848.784 547.119 797.307 556.371 695.965L557.908 679.196L560.212 654.38L560.742 648.556C561.812 636.694 562.58 627.446 563.23 618.386L563.512 614.349C564.601 598.34 565.261 581.715 565.582 563.457L565.635 560.174L564.192 565.188L562.944 548.508C562.566 543.457 561.928 538.789 560.987 534.439L560.781 533.512L560.376 531.74L560.059 530.564C559.523 528.578 562.885 519.441 562.885 519.441L564.789 518.985L567.093 518.442C603.786 509.876 632.369 507.066 658.647 511.787ZM296.947 496.939L298.053 497.243L298.753 497.442C304.366 499.055 310.326 501.338 317.202 504.388L319.17 505.27C320.049 505.667 325.128 507.676 327.147 508.536L327.492 508.686C334.947 511.96 339.392 515.399 340.372 520.46L340.433 520.804C342.608 522.889 345.129 524.893 347.998 526.817L348.723 527.296L349.409 527.738C352.494 529.701 355.415 531.432 358.163 532.927L358.908 533.329L359.423 533.601L364.372 535.301L370.491 537.423L371.718 537.842C378.096 540.014 381.858 541.155 386.364 542.261L388.891 542.879C398.478 545.204 406.971 547.017 415.156 548.437C423.49 549.876 432.046 551.138 440.892 552.243L443.88 552.608C446.826 552.956 449.712 553.218 454.212 553.57L461.488 554.133L466.406 554.532L463.788 558.715C456.93 569.675 451.638 581.886 445.718 599.155L445.057 601.094C439.686 616.964 435.908 631.264 429.405 658.704C419.558 700.339 411.446 742.368 405.102 784.629C400.73 813.756 397.186 842.814 394.483 871.777L394.103 875.914L388.127 875.907C387.341 867.008 386.365 857.844 385.188 848.21C381.494 818.201 376.176 788.734 369.228 759.982L368.572 757.289L368.287 756.129L368.878 755.09C369.233 754.466 369.373 753.764 369.273 753.15C368.544 748.619 367.212 744.483 364.668 738.241L362.074 731.974L361.493 730.535L361.45 730.386C358.7 720.736 355.769 711.198 352.656 701.775L351.611 698.638L351.566 698.492C347.047 682.337 342.606 669 337.388 656.502C333.3 646.741 328.655 637.169 323.478 627.824L322.501 626.075L322.412 625.904C315.854 612.269 308.877 599.378 301.469 587.297L300.28 585.372L300.171 585.057C299.918 584.327 299.536 583.678 299.031 583.128L298.836 582.927L298.587 582.683L298.044 581.83L293.707 580.745C281.504 577.693 268.804 577.425 254.627 579.539L253.68 579.684L252.728 579.835C242.319 581.526 233.377 583.832 217.133 588.768L201.154 593.661L198.881 594.339L196.732 594.972C188.944 597.24 182.123 598.953 175.5 600.239L174.598 600.412L172.147 600.872L170.935 601.092C163.638 602.392 158.529 602.744 153.698 601.82L153.259 601.732L152.722 601.613L152.243 601.492C146.603 599.987 144.519 595.904 147.115 590.21C149.262 585.497 153.919 582.154 160.764 579.225L161.757 578.809L162.004 578.708L162.264 578.652C163.894 578.301 165.454 577.681 166.939 576.779C169.934 574.962 171.187 571.205 169.83 568.103C168.43 564.925 164.602 562.833 161.937 563.906L159.925 564.705L157.724 565.572L156.368 563.634C156.292 563.526 156.22 563.414 156.151 563.291L156.048 563.1L155.982 562.963L155.816 562.818L155.651 562.652C155.237 562.203 155.015 561.716 154.904 561.216C154.862 561.028 154.84 560.856 154.83 560.685L154.824 560.514C154.818 560.158 154.844 559.873 154.954 558.879C155.438 554.561 158.264 551.075 163.156 547.067L163.946 546.429L164.182 546.242C173.545 538.823 185.419 535.005 195.508 537.348C196.002 537.46 196.486 537.585 196.98 537.73L197.478 537.882L198.067 538.079C201.17 539.153 203.594 537.833 204.723 534.88C205.861 531.907 205.096 528.625 202.689 526.853L202.472 526.7L201.737 526.21L200.879 525.621L199.929 524.951L199.493 524.636L198.864 524.168C194.032 520.515 191.378 517.104 192.154 513.069L192.208 512.81L192.277 512.507L192.406 512.225L192.814 511.355L193.236 510.488L193.355 510.25L193.513 510.036C195.176 507.796 197.962 506.095 201.952 504.447L202.418 504.257C204.084 503.586 208.74 501.951 209.436 501.684L209.488 501.664C223.274 496.072 238.252 492.846 253.315 492.186C268.102 491.543 282.917 493.142 296.947 496.939Z" fill="white"/>
<path d="M555.166 651.048L554.987 652.407L554.816 653.767C549.916 692.767 545.786 741.846 542.186 780.977C535.006 858.987 530.606 937.317 531.216 1015.68C531.375 1035.94 532.108 1056.14 533.043 1076.37L533.246 1080.71C534.296 1102.76 535.906 1126.06 542.046 1147.33C542.726 1149.68 544.236 1151.03 545.976 1151.52C546.048 1154 546.19 1156.48 546.357 1158.95L546.486 1160.79C547.196 1170.74 549.226 1191.41 553.566 1200.43C557.796 1209.23 564.846 1216.21 573.836 1220.05C576.355 1221.12 578.919 1221.89 581.516 1222.43C526.927 1223.55 455.228 1221.78 400.537 1220.46C406.222 1219.57 409.444 1215.08 410.196 1209.35C411.696 1197.85 408.876 1185.96 402.496 1176.29C401.836 1175.29 401.056 1174.4 400.186 1173.64L400.338 1167.27C400.445 1162.5 400.496 1157.73 400.226 1152.96C399.646 1142.44 398.776 1131.92 398.016 1121.41C396.476 1100.36 395.286 1079.27 394.816 1058.17C393.856 1015.97 394.556 973.727 396.946 931.587C401.736 847.397 412.886 753.747 431.136 671.397C432.466 665.397 433.806 659.397 435.196 653.407C449.386 660.777 474.646 663.426 490.156 663.527C509.596 663.647 537.606 659.176 555.166 651.048Z" fill="#BA98DE"/>
<path fill-rule="evenodd" clip-rule="evenodd" d="M718.804 1188.72C712.041 1134.43 707.338 1068.88 707.284 1014.14C707.279 1008.98 715.279 1008.99 715.284 1014.14C715.338 1068.88 720.041 1134.43 726.804 1188.72C727.44 1193.82 719.432 1193.76 718.804 1188.72M668.703 852.075C658.253 858.466 644.53 854.033 634.188 849.801C629.479 847.874 631.553 840.138 636.314 842.087C644.185 845.308 655.689 850.05 663.996 845.558C672.287 841.074 672.661 828.74 672.723 820.601C672.762 815.447 680.761 815.451 680.723 820.601C680.639 831.674 679.158 845.679 668.703 852.075M649.361 1100.53C638.818 1095.13 629.822 1087.74 622.582 1078.36C619.435 1074.29 626.388 1070.31 629.49 1074.32C635.862 1082.58 644.164 1088.89 653.399 1093.63C657.987 1095.98 653.934 1102.88 649.361 1100.53M598.684 821.331C580.594 893.822 568.454 967.611 562.504 1042.09C561.294 1057.21 560.444 1072.31 559.964 1087.42C559.484 1091.36 559.024 1095.31 558.594 1099.26C556.964 1114.2 555.714 1129.38 555.824 1144.42C555.874 1151.17 556.084 1157.89 556.544 1164.62C555.744 1162.37 555.004 1160.11 554.284 1157.86C552.814 1153.25 551.844 1148.47 550.344 1143.89C549.104 1140.1 547.504 1136.47 546.014 1132.8V1132.79C546.464 1117.76 545.444 1102.59 544.924 1087.63C544.254 1068.25 543.424 1048.89 542.994 1029.5C542.134 990.721 542.564 951.911 543.964 913.152C546.774 835.051 553.874 757.322 561.034 679.541C563.024 657.911 565.164 636.291 566.644 614.62C568.134 592.721 568.734 570.781 568.904 548.822C568.914 547.241 566.514 546.822 566.074 548.351C565.684 543.141 564.994 537.941 563.844 532.911C581.094 543.911 599.284 553.421 617.114 563.421C626.504 568.691 635.854 574.051 645.534 578.771C650.854 581.37 656.224 583.761 661.704 586.021C667.384 588.361 672.814 591.581 679.064 589.95C679.604 589.811 680.114 589.611 680.604 589.351C679.894 590.7 679.184 592.041 678.504 593.402C676.144 598.091 673.894 602.801 671.714 607.551C671.134 607.981 670.624 608.572 670.224 609.341C669.164 611.411 668.134 613.501 667.134 615.62C666.934 615.431 666.734 615.241 666.534 615.051C665.694 614.261 664.534 615.45 665.274 616.311C665.614 616.7 665.944 617.081 666.274 617.471C659.754 631.501 654.454 646.251 648.994 660.652C642.284 678.351 635.924 696.181 629.934 714.131C618.124 749.441 607.704 785.211 598.684 821.331M340.054 1084.41C306.713 1102.26 275.557 1123.6 245.591 1146.61C241.506 1149.75 237.526 1142.8 241.553 1139.71C271.519 1116.69 302.676 1095.35 336.017 1077.5C340.559 1075.07 344.595 1081.97 340.054 1084.41M227.444 875.288C225.711 875.159 224.027 874.154 223.587 872.352C220.886 861.294 218.771 849.248 221.283 837.969C222.403 832.938 230.114 835.079 228.997 840.095C227.016 848.989 228.59 858.603 230.647 867.472C259.726 868.745 288.415 858.31 316.236 851.303C321.239 850.043 323.352 857.761 318.363 859.017C288.851 866.449 258.325 877.574 227.444 875.288M806.344 1170.25C806.374 1170.18 806.404 1170.1 806.424 1170.03C808.134 1164.85 808.175 1158.83 808.365 1153.4C808.695 1143.74 808.344 1134.06 807.474 1124.43C805.634 1104.16 801.674 1084.22 796.944 1064.45C787.574 1025.29 774.334 987.191 767.144 947.501C753.034 869.591 756.384 788.471 728.694 713.322C717.184 682.081 700.744 652.051 678.404 627.231C680.034 622.271 681.624 617.301 683.174 612.311C685.884 603.631 688.654 594.671 690.324 585.731C690.364 585.491 690.414 585.241 690.444 584.991C699.954 580.891 708.604 573.161 710.084 562.881C710.724 558.441 709.985 553.521 708.065 549.231C711.985 545.611 714.504 540.911 713.904 534.611C712.784 522.751 698.934 519.7 689.294 517.381C678.334 514.751 666.965 514.021 655.755 515.261C650.095 515.881 644.494 516.921 639.024 518.481C634.274 519.831 629.104 521.221 625.294 524.481C624.844 524.861 625.215 525.601 625.755 525.601C633.465 525.572 641.145 522.741 648.935 522.37C657.095 521.991 665.234 522.661 673.234 524.341C681.054 525.981 688.854 528.381 695.964 532.091C697.964 533.141 700.894 533.851 698.544 535.971C696.824 537.521 693.444 537.652 691.234 537.881C686.344 538.391 682.125 541.251 681.505 546.471C680.955 551.081 683.704 556.301 688.604 557.341C688.874 557.402 689.124 557.471 689.344 557.561C689.474 557.811 689.674 558.021 689.654 557.681C689.654 557.681 689.664 557.671 689.664 557.681C689.784 558.411 689.824 558.7 689.824 558.751C689.794 558.691 689.744 558.441 689.704 558.241C689.734 558.421 689.795 558.711 689.875 559.141C689.765 558.671 689.854 559.822 689.764 560.001C687.164 564.801 679.475 566.152 674.995 568.221C674.125 568.62 673.374 569.091 672.734 569.62C671.674 569.251 670.595 568.881 669.505 568.471C664.135 566.461 658.774 564.511 653.334 562.7C642.834 559.191 632.204 556.061 621.704 552.541C601.824 545.881 582.604 537.471 563.094 529.851C562.474 527.551 561.754 525.301 560.904 523.111C560.734 522.652 559.914 522.501 559.824 523.111C559.524 525.051 559.284 527.001 559.084 528.961C559.004 529.141 558.984 529.341 559.024 529.531C557.894 540.931 558.195 552.601 557.615 563.991C556.895 578.191 554.885 592.291 554.315 606.501V606.761C552.215 618.891 550.314 631.061 548.594 643.271C546.664 642.671 544.454 642.791 542.194 644.001C526.214 652.531 508.254 657.281 490.184 658.341C481.084 658.87 472.074 658.572 463.024 657.521C457.074 656.841 451.214 655.601 445.344 654.421C448.434 641.471 451.754 628.581 455.504 615.822C458.594 605.331 462.034 594.891 466.284 584.801C470.574 574.611 475.914 564.881 480.884 555.001C483.174 550.431 480.474 543.441 474.524 543.921C472.764 544.061 471.004 544.171 469.234 544.251C452.014 545.072 434.104 543.152 417.104 541.441C397.754 539.481 378.144 537.45 358.964 534.261C357.544 534.031 356.965 535.961 358.365 536.431C367.465 539.491 376.454 542.95 385.784 545.241C395.384 547.611 405.044 549.771 414.784 551.461C424.114 553.072 433.484 554.421 442.884 555.561C449.014 556.311 455.214 556.691 461.384 557.191C453.074 570.471 447.344 585.45 442.354 600.2C435.944 619.141 431.234 638.631 426.624 658.081C416.764 699.771 408.634 741.881 402.274 784.251C397.714 814.631 394.024 845.131 391.254 875.711C390.434 866.421 389.434 857.161 388.304 847.911C384.524 817.2 379.004 786.691 371.624 756.641C372.284 755.481 372.594 754.091 372.374 752.741C371.044 744.481 367.544 737.291 364.474 729.631C361.424 718.931 358.134 708.301 354.594 697.751C350.574 683.381 346.064 669.231 340.294 655.411C335.884 644.881 330.854 634.62 325.254 624.671C318.564 610.761 311.215 597.152 303.145 584.141C302.725 582.931 302.044 581.801 301.074 580.851C299.604 578.531 298.114 576.241 296.594 573.971C295.604 572.491 292.764 573.391 293.514 575.271C293.864 576.152 294.214 577.031 294.574 577.902C261.704 569.681 229.474 582.251 198.164 591.531C190.264 593.881 182.284 596.001 174.184 597.531C167.814 598.731 160.394 600.191 154.044 598.87C149.794 597.991 147.914 596.061 149.984 591.521C152.124 586.822 157.964 583.731 163.034 581.652C164.944 581.241 166.824 580.511 168.634 579.411C172.854 576.851 174.704 571.511 172.714 566.961C170.904 562.851 165.624 559.311 160.954 561.191C160.284 561.461 159.624 561.721 158.964 561.981C158.894 561.881 158.814 561.741 158.744 561.541C158.074 559.711 157.784 561.902 158.074 559.281C158.554 555.001 163.084 551.111 166.184 548.661C173.894 542.551 185.034 538.031 194.984 540.341C195.734 540.511 196.484 540.721 197.224 540.981C207.474 544.531 212.464 529.771 204.274 524.271C203.774 523.941 203.144 523.521 202.454 523.031C199.044 520.661 194.054 516.671 195.414 513.072C197.094 508.601 207.004 506.031 210.754 504.511C224.314 499.011 238.964 495.891 253.584 495.251C268.294 494.611 283.194 496.231 297.384 500.2C304.344 502.141 311.494 505.091 318.074 508.072C323.984 510.741 336.844 514.271 337.664 521.751C337.844 523.402 340.194 523.961 340.704 522.161C344.734 507.801 329.094 498.531 318.774 492.601C312.004 488.7 304.325 486.271 296.895 483.881C289.775 481.581 282.505 479.891 275.085 478.87C259.155 476.691 243.034 476.971 227.234 480.031C212.844 482.822 196.834 487.581 185.204 496.841C178.064 502.521 174.834 511.561 177.704 520.381C177.804 520.671 177.904 520.971 178.004 521.261C165.154 523.561 152.994 530.921 144.864 541.181C138.184 549.611 134.684 561.341 140.664 571.152C140.414 571.331 140.164 571.521 139.924 571.721C134.224 576.281 129.984 582.902 128.724 590.141C126.254 604.421 134.884 614.411 146.954 618.231C143.964 621.152 141.094 624.251 138.284 627.351C131.994 634.301 125.984 641.87 120.684 649.591C109.944 665.231 100.764 682.261 92.7345 699.421C76.2245 734.661 65.8145 772.591 60.2945 811.051C57.5145 830.431 55.6545 849.911 54.9445 869.471C54.1245 891.771 54.9545 914.081 54.5245 936.391C54.1045 957.831 51.7345 978.751 46.9445 999.652C42.3545 1019.64 36.2345 1039.23 30.6945 1058.96C24.4445 1081.18 17.5645 1103.3 14.2645 1126.21C12.5945 1137.87 11.3945 1149.56 12.3245 1161.35C13.2645 1173.36 17.6245 1183.63 21.6445 1194.8C22.6645 1197.65 25.7745 1198.8 28.2645 1198.19C28.8245 1203.54 30.8445 1208.76 33.8545 1213.28C40.2445 1222.86 50.0845 1228.97 61.3545 1231.19C74.0545 1233.68 87.1445 1233.09 100.004 1232.63C113.954 1232.13 127.914 1231.68 141.864 1231.1C156.469 1230.5 171.073 1229.88 185.678 1229.25C185.195 1214.29 184.619 1199.32 183.968 1184.36C180.447 1103.48 174.902 1022.54 174.755 941.554C174.472 941.388 174.194 941.191 173.928 940.933C167.353 934.578 159.281 930.404 151.697 925.43C147.405 922.615 151.417 915.691 155.735 918.523C162.129 922.716 168.792 926.442 174.784 931.141C174.819 922.71 174.893 914.28 175.06 905.848C175.162 900.699 183.162 900.699 183.06 905.848C182.558 931.259 182.726 956.676 183.301 982.084C185.162 1064.42 191.012 1146.61 193.676 1228.91C232.876 1227.24 272.078 1225.55 311.284 1224.12C343.174 1222.96 375.064 1221.8 406.954 1220.64C413.644 1220.4 417.404 1215.62 418.224 1209.37C419.724 1197.87 416.904 1185.98 410.524 1176.31C409.864 1175.31 409.084 1174.42 408.214 1173.66C408.364 1166.77 408.644 1159.87 408.254 1152.98C407.674 1142.46 406.804 1131.94 406.044 1121.43C404.504 1100.38 403.314 1079.29 402.844 1058.19C401.884 1015.99 402.584 973.751 404.974 931.611C409.764 847.421 420.914 763.771 439.164 681.421C440.494 675.421 441.834 669.421 443.224 663.431C457.414 670.801 474.674 673.45 490.184 673.551C509.624 673.671 528.634 669.2 546.194 661.072C546.074 661.981 545.954 662.881 545.844 663.791C540.944 702.791 536.814 741.87 533.214 781.001C526.034 859.011 521.634 937.341 522.244 1015.7C522.414 1037.41 523.244 1059.05 524.274 1080.73C525.324 1102.78 526.934 1126.08 533.074 1147.35C533.754 1149.7 535.265 1151.05 537.005 1151.54C537.095 1154.64 537.294 1157.75 537.514 1160.81C538.224 1170.76 540.254 1191.43 544.594 1200.45C548.824 1209.25 555.875 1216.23 564.865 1220.07C576.285 1224.94 588.634 1223.54 600.694 1222.76C653.134 1219.34 705.534 1214.76 757.944 1210.74C765.244 1210.18 772.544 1209.63 779.834 1209.06C786.324 1208.56 793.034 1208.12 798.794 1204.75C805.344 1200.92 810.454 1182.11 808.194 1174.33C807.784 1172.91 807.164 1171.51 806.344 1170.25" fill="black"/>
<path fill-rule="evenodd" clip-rule="evenodd" d="M645.531 184.685C585.399 144.882 464.931 149.205 398.737 173.591C334.149 194.074 311.536 251.149 300.812 312.812C287.777 382.115 289.529 482.018 383.263 480.809C396.441 487.182 411.04 489.946 424.675 495.224C443.337 501.676 461.635 509.166 480.572 514.817C517.87 526.829 559.374 525.784 594.755 508.207C614.302 498.765 622.393 484.06 635.177 468.391C672.367 422.806 691.08 357.568 689.404 299.604C686.463 258.789 679.712 211.541 645.531 184.685Z" fill="#EDB98A"/>
<path fill-rule="evenodd" clip-rule="evenodd" d="M721.624 352.695C715.454 314.395 713.744 275.445 705.664 237.445C698.064 201.686 683.854 167.895 659.024 140.635C636.804 116.245 608.074 98.3353 577.234 86.9853C517.154 64.8753 448.054 69.8753 389.934 95.6863C335.534 119.835 292.144 164.515 266.854 218.135C250.424 252.975 242.164 290.015 238.494 328.245C234.424 370.715 233.984 413.625 232.324 456.245C232.124 461.505 231.834 466.765 231.764 472.026C231.684 477.785 234.014 482.835 235.914 488.195C236.044 488.575 236.234 488.936 236.464 489.276C235.034 489.455 233.604 489.665 232.174 489.895C230.574 490.145 230.644 492.745 232.174 493.055C245.124 495.695 258.434 496.065 271.604 496.715C285.254 497.395 298.924 497.766 312.594 498.225C325.924 498.675 339.254 499.125 352.584 499.575C359.584 499.815 366.584 500.055 373.584 500.285C376.914 500.395 380.244 500.516 383.584 500.625C385.244 500.686 386.914 500.734 388.574 500.795C389.924 500.835 392.124 501.695 392.264 500.705C392.514 500.856 392.784 500.984 393.074 501.075C393.394 501.245 393.704 501.445 394.004 501.665C395.634 502.785 398.104 502.645 399.754 501.665C399.904 501.575 400.064 501.475 400.224 501.375C401.454 500.645 402.314 499.585 402.794 498.385C409.634 506.645 421.744 497.365 414.744 488.625C410.984 483.925 373.584 368.695 389.064 280.915L451.144 272.695C462.494 271.545 483.614 269.255 483.614 269.255C483.614 269.255 488.784 252.385 490.264 246.955C490.374 246.555 490.484 246.145 490.604 245.745C492.084 248.356 493.574 250.955 495.074 253.555L502.734 269.125C502.734 269.125 615.794 267.235 643.514 267.415C643.984 267.415 646.214 301.115 645.204 315.955C643.164 345.755 640.994 375.535 637.974 405.255C636.046 424.286 631.4 442.949 624.479 460.488C613.547 488.195 581.804 514.531 550.854 514.531C531.588 514.531 488.054 498.927 481.714 495.776C475.374 492.625 471.596 501.225 477.374 504.665C489.078 511.634 521.339 526.415 550.854 526.415C593.717 526.415 626.074 485.745 630.044 479.915C669.074 477.776 708.994 478.765 747.974 482.635C751.244 482.955 754.064 479.015 753.014 476.005C739.014 435.936 728.364 394.606 721.624 352.695Z" fill="black"/>
<path fill-rule="evenodd" clip-rule="evenodd" d="M520.15 422.292C525.744 413.09 537.668 435.632 538.934 439.508C540.056 442.941 540.797 446.459 541.174 450.017C545.511 450.989 550.014 450.991 554.458 450.139C561.063 448.872 565.1 445.321 570.84 442.272C574.805 440.166 579.802 442.636 581.864 446.13C584.289 450.242 582.744 454.511 579.554 457.577C573.505 463.391 561.603 464.726 553.707 463.182C549.183 462.298 545.037 460.602 541.376 458.136C541.351 458.596 541.335 459.056 541.299 459.516L541.229 460.313C540.622 466.761 538.85 474.868 533.842 479.064C525.627 485.946 515.49 472.71 523.471 465.836L523.719 465.63C528.68 461.621 529.762 450.866 529.495 444.942C529.32 441.076 528.616 437.16 527.395 433.477L527.144 432.744C526.777 431.704 522.77 421.837 521.322 423.093L521.253 423.164C520.656 423.877 519.691 423.047 520.15 422.292ZM564.814 370.367C572.365 374.957 583.871 385.66 575.748 397.039C566.186 407.073 552.418 395.569 545.634 390.366C539.343 386.334 532.275 396.704 538.112 401.413C587.135 437.708 607.03 371.567 568.633 364.97C564.406 364.243 562.836 368.947 564.814 370.367ZM484.178 327.94C491.558 326.631 499.118 328.466 505.225 332.784L505.688 333.117C511.572 337.42 518.155 344.975 514.778 352.392C513.423 355.37 509.365 355.837 506.79 354.487C502.503 352.239 501.726 346.708 497.901 343.647C494.764 341.138 490.54 339.616 486.5 339.983C477.009 340.845 471.171 350.206 468.223 358.273C467.846 359.305 466.331 359.706 465.739 358.598C458.788 345.606 471.092 330.262 484.178 327.94ZM602.389 323.037C616.526 321.872 633.073 336.528 629.351 351.45C627.566 358.61 616.945 358.405 615.057 351.45C614.018 347.623 614.122 344.237 611.367 341.059C609.093 338.435 605.862 336.911 602.389 337.145C598.561 337.403 595.03 339.316 592.347 342.005C589.924 344.433 588.475 347.986 585.965 350.135C585.347 350.663 584.52 350.697 583.91 350.135C579.59 346.152 582.183 337.86 584.922 333.702C588.842 327.752 595.225 323.628 602.389 323.037ZM457.257 301.475C466.326 293.447 482.805 285.694 495.034 289.645C502.065 291.916 505.13 303.245 497.281 306.836C488.192 310.994 477.713 309.302 468.462 313.612C464.577 315.423 460.923 317.686 458.218 321.005C456.087 323.621 453.919 327.063 450.837 328.571C450.027 328.968 448.93 328.978 448.281 328.242C441.525 320.6 451.358 306.696 457.257 301.475ZM586.801 289.246C592.406 287.673 598.624 287.705 604.318 288.693C610.01 289.681 615.789 292.04 620.436 295.481L620.976 295.884C626.049 299.707 632.103 305.269 631.778 312.041C631.507 317.696 625.558 321.521 620.422 318.557C616.235 316.14 614.265 311.298 610.72 308.074C607.795 305.413 604.359 303.315 600.693 301.845C596.621 300.212 592.542 299.447 588.172 299.374C584.807 299.318 581.422 300.422 578.12 300.775C578.392 301.333 575.782 301.073 574.286 300.578C573.178 300.106 573.172 298.705 573.556 297.796C575.461 293.293 582.392 290.482 586.801 289.246Z" fill="black"/>
<path fill-rule="evenodd" clip-rule="evenodd" d="M628.809 293C652.281 293 665.676 298.048 670.584 298.441L670.732 298.451C672.773 298.582 674.605 298.753 676.526 299.496C683.592 302.217 684.743 309.627 680.619 314.298C680.33 323.961 681.601 335.253 679.42 344.947C676.73 385.818 657.509 392.716 646.584 395.233C641.098 396.497 634.597 397 628.771 395.666C618.831 395.295 609.004 392.184 600.597 386.765C588.888 379.213 580.191 367.606 577.368 353.83C576.031 347.264 575.406 340.429 576.134 333.754L576.242 332.835C572.436 331.014 568.025 330.67 563.479 330.509C561.307 330.432 559.166 330.363 557.087 330.455C555.054 330.682 553.045 330.984 551.031 331.396C548.831 332.059 546.753 333.155 544.835 334.89L544.703 337.423C544.343 343.749 543.512 350.094 542.231 356.3C540.339 365.458 537.297 374.204 530.822 380.699C528.63 383.973 525.918 386.895 522.626 389.425C510.665 398.634 494.415 402.015 479.502 400.742C449.225 398.158 431.724 374.123 427.691 363.85L427.45 363.228C424.537 355.59 422.215 345.681 413.009 344.04L411.051 343.688C406.85 342.899 402.973 341.802 400.51 337.703C399.43 335.913 398.875 333.912 398.739 331.872C397.301 331.982 395.866 332.088 394.436 332.19C383.028 334.603 314.6 336.648 309.138 336.648C309.138 336.648 298.639 341.067 294.207 337.643C291.134 335.263 290.123 332.09 291.815 328.495C294.367 323.086 306.14 319.833 311.368 318.803C311.368 318.803 395.733 319.503 401.805 318.352C405.562 314.478 412.282 315.008 417.898 314.396C422.546 311.081 429.049 308.861 434.186 307.375C435.233 306.978 436.27 306.595 437.278 306.233C446.695 302.88 456.484 301.103 466.422 300.149C476.67 299.175 486.948 299.616 497.136 301.012C501.429 301.594 505.682 302.347 509.906 303.332C517.468 304.329 524.986 305.971 532.551 307.919L534.065 308.313C542.031 310.401 550.217 312.208 558.464 310.792C565.177 309.647 571.634 307.063 577.824 304.269L578.629 303.904C592.24 297.689 613.496 293 628.809 293ZM509.087 315.722C504.065 314.618 501.92 322.361 506.958 323.468C510.526 324.253 513.549 326.052 515.592 329.099L515.807 329.431C518.548 333.793 525.48 329.766 522.72 325.376C519.614 320.436 514.788 316.976 509.087 315.722ZM656.173 310.922C654.403 309.675 651.724 310.6 650.696 312.363C649.565 314.303 650.306 316.464 651.964 317.733L652.133 317.857C653.654 318.929 655.135 320.851 655.321 322.819L655.338 323.066C655.537 328.218 663.544 328.244 663.344 323.066C663.149 318 660.215 313.767 656.173 310.922Z" fill="black"/>
<line x1="391.27" y1="498.048" x2="373.27" y2="537.048" stroke="black" stroke-width="5"/>
</svg>
